<svg height="512pt" viewBox="-33 0 512 512" width="512pt" xmlns="http://www.w3.org/2000/svg"><path d="m430.421875 0h-215.714844v143.222656c0 43.417969-35.320312 78.742188-78.742187 78.742188h-135.964844v275.019531c0 8.292969 6.722656 15.015625 15.015625 15.015625h415.40625c8.289063 0 15.011719-6.722656 15.011719-15.015625v-481.96875c0-8.292969-6.722656-15.015625-15.011719-15.015625zm-172.667969 166.207031h117.113282c8.289062 0 15.011718 6.722657 15.011718 15.015625 0 8.292969-6.722656 15.015625-15.011718 15.015625h-117.113282c-8.292968 0-15.015625-6.722656-15.015625-15.015625 0-8.292968 6.722657-15.015625 15.015625-15.015625zm-15.015625-39.332031c0-8.292969 6.722657-15.015625 15.015625-15.015625h117.113282c8.289062 0 15.011718 6.722656 15.011718 15.015625 0 8.289062-6.722656 15.011719-15.011718 15.011719h-117.113282c-8.292968 0-15.015625-6.722657-15.015625-15.011719zm15.015625 95.992188h113.386719c8.292969 0 15.015625 6.722656 15.015625 15.011718v55.160156c0 8.292969-6.722656 15.015626-15.015625 15.015626h-113.386719c-8.292968 0-15.015625-6.722657-15.015625-15.015626v-55.160156c0-8.289062 6.722657-15.011718 15.015625-15.011718zm0 110.105468h113.386719c8.292969 0 15.015625 6.722656 15.015625 15.015625v55.15625c0 8.292969-6.722656 15.015625-15.015625 15.015625h-113.386719c-8.292968 0-15.015625-6.722656-15.015625-15.015625v-55.15625c0-8.292969 6.722657-15.015625 15.015625-15.015625zm-188.1875-54.949218h126.125c8.292969 0 15.015625 6.722656 15.015625 15.015624 0 8.289063-6.722656 15.011719-15.015625 15.011719h-126.125c-8.289062 0-15.011718-6.722656-15.011718-15.011719 0-8.292968 6.722656-15.015624 15.011718-15.015624zm0 54.949218h126.125c8.292969 0 15.015625 6.722656 15.015625 15.015625s-6.722656 15.015625-15.015625 15.015625h-126.125c-8.289062 0-15.011718-6.722656-15.011718-15.015625s6.722656-15.015625 15.011718-15.015625zm0 55.15625h126.125c8.292969 0 15.015625 6.722656 15.015625 15.015625s-6.722656 15.015625-15.015625 15.015625h-126.125c-8.289062 0-15.011718-6.722656-15.011718-15.015625s6.722656-15.015625 15.011718-15.015625zm0 0"/><path d="m135.964844 191.9375c26.863281 0 48.714844-21.851562 48.714844-48.714844v-143.222656h-169.664063c-8.292969 0-15.015625 6.722656-15.015625 15.015625v176.921875zm6.585937-54.386719c0 7.035157-5.707031 12.738281-12.742187 12.738281h-79.261719c-7.039063 0-12.742187-5.703124-12.742187-12.738281v-9.960937c0-21.820313 13.414062-37.550782 32.425781-45.414063-4.226563-4.730469-6.800781-10.964843-6.800781-17.792969 0-14.75 11.996093-26.746093 26.746093-26.746093 14.746094 0 26.746094 11.996093 26.746094 26.746093 0 6.828126-2.578125 13.0625-6.800781 17.792969 19.011718 7.863281 32.425781 23.59375 32.425781 45.414063v9.960937zm0 0"/><path d="m272.765625 363.003906h83.359375v25.128906h-83.359375zm0 0"/><path d="m272.765625 252.894531h83.359375v25.128907h-83.359375zm0 0"/></svg>