<?xml version="1.0" encoding="iso-8859-1"?>
<!-- Generator: Adobe Illustrator 19.0.0, SVG Export Plug-In . SVG Version: 6.00 Build 0)  -->
<svg version="1.1" id="Capa_1" xmlns="http://www.w3.org/2000/svg" xmlns:xlink="http://www.w3.org/1999/xlink" x="0px" y="0px"
	 viewBox="0 0 512 512" style="enable-background:new 0 0 512 512;" xml:space="preserve">
<g>
	<g>
		<path d="M467,0H271v85.534c32.492-4.136,59.006,19.475,59.956,48.649c1.088,32.095-26.697,58.27-59.956,53.033V241h75
			c10.811,0,18.267,11.887,13.418,21.709l-3.164,6.328c-3.516,7.031-3.076,15.19,1.172,21.812
			c4.292,6.694,11.133,10.093,19.395,10.137c9.492-0.322,14.634-6.636,16.86-10.371c4.307-7.236,4.702-16.304,1.011-23.687
			c-2.52-5.039-2.232-4.671-2.232-4.671C387.781,252.155,395.552,241,406,241h106V45C512,20.147,491.853,0,467,0z"/>
	</g>
</g>
<g>
	<g>
		<path d="M300.986,135.179c-0.322-9.492-6.636-14.634-10.371-16.86c-7.192-4.292-16.274-4.702-23.687-1.011l-4.219,2.109
			C252.832,124.356,241,116.624,241,106V0H45C20.147,0,0,20.147,0,45v196h84.481c-4.973-31.523,20.221-61.223,53.335-59.956
			c31.058,1.011,52.815,30.035,49.028,59.956H241v-75c0-10.626,11.832-18.356,21.709-13.418l6.328,3.164
			c7.017,3.545,15.19,3.076,21.812-1.172C297.558,150.282,301.249,143.207,300.986,135.179z"/>
	</g>
</g>
<g>
	<g>
		<path d="M426.462,271c4.127,32.503-19.471,59.006-48.646,59.956c-31.234,1.487-58.348-26.407-53.069-59.956H271v75
			c0,11.032-11.662,18.426-21.709,13.418l-6.328-3.164c-7.031-3.516-15.205-3.062-21.812,1.172
			c-6.709,4.292-10.4,11.367-10.137,19.395c0.322,9.492,6.636,14.634,10.371,16.86c7.222,4.307,16.318,4.731,23.687,1.011
			l4.219-2.109C259.254,387.569,271,394.893,271,406v106h196c24.853,0,45-20.147,45-45V271H426.462z"/>
	</g>
</g>
<g>
	<g>
		<path d="M241,324.482V271h-75c-11.107,0-18.419-11.741-13.418-21.709l2.109-4.219c3.691-7.383,3.296-16.45-1.011-23.687
			c-2.227-3.735-7.368-10.049-16.86-10.371c-8.101,0.205-15.103,3.428-19.395,10.137c-4.248,6.621-4.688,14.78-1.172,21.812
			l3.164,6.328C124.419,259.259,117.107,271,106,271H0v196c0,24.853,20.147,45,45,45h196v-85.155
			c-30.828,3.706-58.965-18.615-59.956-49.028C179.896,343.944,210.121,319.518,241,324.482z"/>
	</g>
</g>
<g>
</g>
<g>
</g>
<g>
</g>
<g>
</g>
<g>
</g>
<g>
</g>
<g>
</g>
<g>
</g>
<g>
</g>
<g>
</g>
<g>
</g>
<g>
</g>
<g>
</g>
<g>
</g>
<g>
</g>
</svg>
